HIERARCHY
ROOT Hips
{
	OFFSET 0.000000 0.000000 0.000000 
	CHANNELS 6 Xposition Yposition Zposition Yrotation Zrotation Xrotation 
	JOINT Lumbar
	{
		OFFSET 0.000000 0.000000 0.000000 
		CHANNELS 3 Zrotation Xrotation Yrotation
		JOINT Neck
		{
			OFFSET 0.000000 0.445665 0.000000 
			CHANNELS 3 Zrotation Xrotation Yrotation
			End Site
			{
				OFFSET 0.000000 0.227535 0.000000 
			}
		}
		JOINT RightShoulder
		{
			OFFSET 0.019635 0.377685 0.194865 
			CHANNELS 3 Zrotation Xrotation Yrotation
			JOINT RightElbow
			{
				OFFSET 0.000000 -0.243375 0.000000 
				CHANNELS 2 Zrotation Yrotation
				JOINT RightWrist
				{
					OFFSET 0.000000 -0.264825 0.000000 
					CHANNELS 2 Zrotation Xrotation
					End Site
					{
						OFFSET 0.006600 -0.176220 0.000990 
					}
				}
			}
		}
		JOINT LeftShoulder
		{
			OFFSET 0.019635 0.377685 -0.194865 
			CHANNELS 3 Zrotation Xrotation Yrotation
			JOINT LeftElbow
			{
				OFFSET 0.000000 -0.243375 0.000000 
				CHANNELS 2 Zrotation Yrotation
				JOINT LeftWrist
				{
					OFFSET 0.000000 -0.264825 0.000000 
					CHANNELS 2 Zrotation Xrotation
					End Site
					{
						OFFSET 0.006600 -0.176220 -0.000990 
					}
				}
			}
		}
	}
	JOINT RightHip
	{
		OFFSET 0.052140 -0.069960 0.075570 
		CHANNELS 3 Zrotation Xrotation Yrotation
		JOINT RightKnee
		{
			OFFSET 0.000000 -0.402270 0.000000 
			CHANNELS 1 Zrotation
			JOINT RightAnkle
			{
				OFFSET 0.000000 -0.404085 0.000000 
				CHANNELS 3 Zrotation Xrotation Yrotation
				End Site
				{
					OFFSET 0.204105 -0.089430 0.008415 
				}
			}
		}
	}
	JOINT LeftHip
	{
		OFFSET 0.052140 -0.069960 -0.075570 
		CHANNELS 3 Zrotation Xrotation Yrotation
		JOINT LeftKnee
		{
			OFFSET 0.000000 -0.402270 0.000000 
			CHANNELS 1 Zrotation
			JOINT LeftAnkle
			{
				OFFSET 0.000000 -0.404085 0.000000 
				CHANNELS 3 Zrotation Xrotation Yrotation
				End Site
				{
					OFFSET 0.204105 -0.089430 -0.008415 
				}
			}
		}
	}
}
MOTION
Frames: 29
Frame Time: 0.02
0 0.95578 0 182.76687 0 -2.86364 0.74451 2.26403 -5.04063 -35.81784 5.76038 3.95408 -1.86992 -72.61353 -71.41396 20.82968 75.04515 -16.84176 -2.34581 1.94152 59.89259 68.70732 23.10475 -71.02987 -28.33375 2.59238 -3.14369 1.41995 4.06572 -6.0125 -2.88551 -3.43244 -6.14408 -0.84254 4.51922 -0.84574 -7.58249 3.96 2.36176 0.36324
-0.00015 0.95577 -1e-05 182.76658 0 -2.86286 0.75508 2.26165 -5.03054 -35.84148 5.75568 3.95925 -1.82398 -72.60825 -71.39623 20.83184 74.99867 -16.87116 -2.34023 1.95135 59.89706 68.64058 23.11206 -70.95186 -28.33533 2.60998 -3.15963 1.41892 4.05263 -5.99881 -2.88466 -3.43828 -6.12967 -0.85615 4.51929 -0.84651 -7.5733 3.96312 2.36136 0.36547
-0.0003 0.95576 -1e-05 182.76629 0 -2.86208 0.76556 2.2593 -5.0205 -35.86488 5.75096 3.96436 -1.77824 -72.6029 -71.37844 20.83398 74.95266 -16.90021 -2.33474 1.96117 59.9015 68.57425 23.11929 -70.87439 -28.33674 2.62749 -3.17545 1.41789 4.03958 -5.98528 -2.88376 -3.44408 -6.11533 -0.86964 4.51936 -0.84731 -7.56426 3.96627 2.36097 0.36773
-0.00045 0.95575 -2e-05 182.766 0 -2.86132 0.77582 2.25704 -5.01058 -35.88761 5.74609 3.9693 -1.7326 -72.59726 -71.36012 20.83612 74.90793 -16.92805 -2.32956 1.97117 59.90595 68.50904 23.12632 -70.79785 -28.33747 2.645 -3.19094 1.41691 4.02689 -5.97217 -2.88276 -3.44977 -6.10139 -0.88274 4.5194 -0.84833 -7.55579 3.96962 2.36069 0.37017
-0.00061 0.95574 -3e-05 182.76568 0 -2.86049 0.78727 2.2543 -5.00003 -35.91393 5.74196 3.97513 -1.68614 -72.59321 -71.34445 20.83832 74.85627 -16.96219 -2.32278 1.98035 59.91044 68.43806 23.13447 -70.7158 -28.34176 2.66274 -3.20816 1.41574 4.01265 -5.95679 -2.88242 -3.45604 -6.08566 -0.89784 4.51959 -0.84827 -7.54436 3.97197 2.35991 0.3717
-0.00075 0.95573 -3e-05 182.76543 0 -2.85979 0.79616 2.25257 -4.99082 -35.93259 5.73629 3.97911 -1.64166 -72.58577 -71.32333 20.84032 74.8194 -16.98304 -2.31936 1.99119 59.91477 68.37921 23.14023 -70.64589 -28.33857 2.67979 -3.2217 1.41493 4.00149 -5.94627 -2.8806 -3.46108 -6.07353 -0.90875 4.51945 -0.85046 -7.53915 3.9764 2.36015 0.37514
-0.00084 0.95573 -4e-05 182.76534 0 -2.85953 0.79816 2.25388 -4.98529 -35.93029 5.72597 3.97773 -1.59984 -72.5687 -71.28484 20.84236 74.82331 -16.96575 -2.32557 2.00767 59.91917 68.35472 23.13919 -70.60534 -28.31331 2.69701 -3.22512 1.4155 4.00056 -5.94893 -2.87517 -3.46266 -6.07308 -0.90765 4.51856 -0.85929 -7.55202 3.98706 2.36338 0.38442
-0.0009 0.95572 -4e-05 182.76532 0 -2.85937 0.79755 2.25616 -4.98111 -35.92023 5.71418 3.97454 -1.56047 -72.54825 -71.2412 20.8441 74.84216 -16.93527 -2.33511 2.02566 59.92328 68.34233 23.13575 -70.57772 -28.28069 2.71322 -3.22485 1.41638 4.00248 -5.95651 -2.86817 -3.463 -6.07602 -0.90242 4.51732 -0.87031 -7.57102 3.99974 2.36759 0.39556
-0.00097 0.95571 -4e-05 182.76528 0 -2.85908 0.79802 2.25783 -4.97633 -35.91357 5.70331 3.97235 -1.52182 -72.52949 -71.20141 20.84557 74.85429 -16.91173 -2.34289 2.04231 59.92719 68.32374 23.13353 -70.54691 -28.25234 2.72854 -3.22622 1.41688 4.00186 -5.96205 -2.86152 -3.46395 -6.07619 -0.89937 4.51614 -0.88002 -7.58667 4.01119 2.37123 0.4055
-0.00104 0.9557 -4e-05 182.76517 0 -2.85913 0.7989 2.26022 -4.97149 -35.90738 5.69135 3.96943 -1.47554 -72.51003 -71.1554 20.84868 74.86626 -16.88423 -2.35169 2.06174 59.93259 68.3079 23.13084 -70.50494 -28.2202 2.74939 -3.22766 1.41836 4.00617 -5.96692 -2.85629 -3.46472 -6.08125 -0.89502 4.51534 -0.89101 -7.60475 4.02395 2.37539 0.41693
-0.00111 0.95569 -3e-05 182.76524 0 -2.85853 0.79834 2.26135 -4.96712 -35.89846 5.68136 3.96759 -1.4456 -72.49129 -71.12094 20.84836 74.88196 -16.86179 -2.35918 2.0757 59.93471 68.2895 23.12847 -70.48909 -28.19408 2.75866 -3.22817 1.41792 4.00128 -5.97416 -2.84787 -3.46556 -6.07732 -0.89243 4.5137 -0.8999 -7.61916 4.03446 2.3787 0.42571
-0.00118 0.95568 -0 182.76568 0 -2.85594 0.79435 2.25866 -4.96338 -35.88309 5.6768 3.96937 -1.46145 -72.47474 -71.12119 20.8382 74.90557 -16.85706 -2.36213 2.07462 59.92875 68.25845 23.12824 -70.54399 -28.18749 2.73482 -3.22615 1.41168 3.96698 -5.98838 -2.82966 -3.46689 -6.04424 -0.89537 4.50965 -0.90214 -7.62248 4.03821 2.3793 0.4264
-0.00126 0.95566 4e-05 182.76629 0 -2.85274 0.78903 2.25468 -4.96011 -35.86538 5.67433 3.97229 -1.49346 -72.45915 -71.13299 20.82468 74.93223 -16.85779 -2.36366 2.06789 59.91934 68.22488 23.12832 -70.62445 -28.18703 2.69965 -3.22348 1.40357 3.92389 -6.00455 -2.80851 -3.46833 -6.00258 -0.90029 4.5048 -0.90222 -7.62182 4.03965 2.37903 0.42439
-0.00134 0.95565 8e-05 182.76688 0 -2.84996 0.78439 2.25135 -4.95683 -35.84928 5.67116 3.97459 -1.51716 -72.44353 -71.13846 20.81298 74.95663 -16.85568 -2.36593 2.06346 59.91092 68.1942 23.12778 -70.69198 -28.18304 2.67056 -3.22172 1.39658 3.88704 -6.01871 -2.78959 -3.4697 -5.96719 -0.90456 4.50043 -0.9035 -7.62257 4.04217 2.37922 0.4238
-0.00141 0.95563 0.00012 182.76728 0 -2.84662 0.77934 2.24782 -4.95278 -35.83062 5.66692 3.97723 -1.54484 -72.42608 -71.14817 20.80003 74.98508 -16.8546 -2.36798 2.06025 59.9049 68.15664 23.12904 -70.76529 -28.18186 2.63742 -3.21732 1.38848 3.84102 -6.03766 -2.76691 -3.4711 -5.92214 -0.90768 4.49558 -0.90398 -7.6251 4.04459 2.37915 0.42249
-0.00149 0.95562 0.00016 182.76808 0 -2.84427 0.77485 2.24437 -4.95038 -35.81681 5.66539 3.97948 -1.56825 -72.41269 -71.15203 20.78887 75.00579 -16.85288 -2.37004 2.05309 59.89309 68.1326 23.12685 -70.83272 -28.17646 2.61012 -3.2182 1.38223 3.81174 -6.04717 -2.75129 -3.47248 -5.89486 -0.91362 4.49152 -0.90552 -7.62305 4.04667 2.37941 0.42201
-0.00161 0.95561 0.00022 182.77037 0 -2.84487 0.77245 2.24155 -4.95281 -35.81737 5.67111 3.98005 -1.57413 -72.41037 -71.13543 20.7838 75.0029 -16.84784 -2.37301 2.03693 59.86579 68.147 23.11344 -70.87572 -28.15724 2.60115 -3.2347 1.38173 3.83277 -6.02887 -2.75658 -3.47379 -5.9211 -0.92767 4.48987 -0.9111 -7.60796 4.04803 2.38087 0.42456
-0.00173 0.95561 0.00027 182.77301 0 -2.84648 0.77064 2.23883 -4.9568 -35.82285 5.67944 3.98023 -1.57542 -72.41206 -71.1128 20.78072 74.99232 -16.84209 -2.37597 2.01686 59.83278 68.17495 23.09697 -70.91245 -28.13365 2.59852 -3.2564 1.38313 3.8706 -6.00122 -2.76895 -3.47507 -5.9651 -0.94438 4.48901 -0.91771 -7.58862 4.04916 2.38269 0.42802
-0.00185 0.95561 0.00033 182.77522 0 -2.8476 0.76843 2.23599 -4.95981 -35.8259 5.68641 3.98081 -1.58004 -72.41191 -71.09397 20.77638 74.98615 -16.83685 -2.37855 1.99829 59.80272 68.1963 23.0828 -70.95298 -28.11264 2.59347 -3.27517 1.38355 3.89944 -5.97865 -2.77762 -3.47636 -5.99939 -0.95936 4.48775 -0.92345 -7.57213 4.05059 2.38431 0.43102
-0.00197 0.9556 0.00038 182.77853 0 -2.84884 0.76673 2.23343 -4.96397 -35.82975 5.69418 3.98057 -1.58018 -72.41202 -71.07125 20.77292 74.97619 -16.83092 -2.38257 1.98083 59.77132 68.21943 23.0643 -70.98944 -28.08966 2.58629 -3.2963 1.3844 3.93362 -5.95265 -2.78823 -3.47768 -6.04017 -0.97656 4.48668 -0.93078 -7.55168 4.05116 2.38604 0.43415
-0.00209 0.9556 0.00044 182.77967 0 -2.85004 0.76412 2.23033 -4.96612 -35.83306 5.7009 3.98183 -1.58808 -72.41233 -71.05482 20.76878 74.97231 -16.82627 -2.38377 1.96004 59.74107 68.24214 23.05473 -71.03374 -28.06922 2.58492 -3.31377 1.3848 3.96087 -5.93156 -2.79651 -3.47893 -6.0719 -0.98978 4.48537 -0.9351 -7.53847 4.05346 2.38765 0.43726
-0.00216 0.95559 0.00048 182.77429 0 -2.85115 0.75875 2.22584 -4.96222 -35.83388 5.70393 3.98802 -1.62043 -72.41364 -71.05847 20.75787 74.98646 -16.82446 -2.37584 1.93182 59.71772 68.25991 23.06634 -71.09101 -28.06099 2.60063 -3.31979 1.38375 3.96409 -5.92617 -2.79677 -3.47994 -6.07327 -0.99114 4.48355 -0.93063 -7.54685 4.06102 2.38888 0.44006
-0.00222 0.95559 0.00052 182.76675 0 -2.85214 0.7524 2.22081 -4.9563 -35.83375 5.70583 3.99554 -1.65996 -72.4145 -71.06795 20.74773 75.0071 -16.82398 -2.36533 1.89982 59.69496 68.27677 23.08867 -71.15825 -28.05484 2.62165 -3.32193 1.38212 3.95992 -5.92608 -2.79443 -3.48087 -6.06512 -0.98841 4.48138 -0.92317 -7.56264 4.07027 2.39001 0.44288
-0.00229 0.95559 0.00057 182.7605 0 -2.85301 0.74665 2.21594 -4.9513 -35.8342 5.70831 4.00206 -1.69531 -72.41494 -71.0744 20.7393 75.02513 -16.82352 -2.35692 1.86958 59.6709 68.29456 23.10777 -71.2274 -28.04476 2.63844 -3.32593 1.38061 3.95968 -5.92362 -2.7932 -3.48187 -6.0621 -0.98776 4.47915 -0.91716 -7.57458 4.07847 2.39115 0.44562
-0.00236 0.95558 0.00061 182.75306 0 -2.85465 0.74056 2.21141 -4.94611 -35.83504 5.71056 4.01048 -1.73583 -72.41914 -71.08396 20.71947 75.04136 -16.82078 -2.34463 1.84077 59.65249 68.3112 23.11634 -71.26885 -28.04634 2.66265 -3.3298 1.37986 3.95764 -5.92059 -2.79252 -3.48275 -6.05647 -0.98646 4.47794 -0.91062 -7.5881 4.08782 2.39236 0.44844
-0.00243 0.95558 0.00066 182.74746 0 -2.85464 0.73456 2.2061 -4.9411 -35.83372 5.71305 4.01494 -1.76552 -72.41413 -71.08636 20.72703 75.06311 -16.82265 -2.33973 1.80594 59.62063 68.32913 23.15382 -71.37084 -28.02516 2.67317 -3.33283 1.37727 3.95735 -5.92023 -2.78999 -3.48383 -6.05358 -0.98528 4.47441 -0.90466 -7.60052 4.09525 2.39352 0.45143
-0.00251 0.95558 0.00071 182.74819 0 -2.85013 0.73225 2.19818 -4.93452 -35.83572 5.71592 4.01099 -1.77878 -72.39361 -71.08395 20.78122 75.09855 -16.84107 -2.35682 1.77505 59.56688 68.35492 23.23229 -71.63412 -27.93207 2.63944 -3.33538 1.37043 3.96404 -5.92516 -2.78304 -3.48569 -6.06216 -0.98732 4.46545 -0.89918 -7.60485 4.09645 2.39345 0.45211
-0.00258 0.95558 0.00078 182.75059 0 -2.84395 0.72948 2.1896 -4.92855 -35.83387 5.71913 4.00255 -1.7779 -72.36157 -71.06983 20.86907 75.14016 -16.86337 -2.38143 1.73515 59.4962 68.37986 23.3471 -71.95871 -27.81743 2.59263 -3.33699 1.36159 3.97268 -5.93277 -2.77428 -3.48772 -6.07341 -0.98929 4.45395 -0.89464 -7.60841 4.09578 2.39358 0.45353
-0.00266 0.95559 0.00085 182.75187 0 -2.83853 0.72482 2.18174 -4.92407 -35.82781 5.7226 3.99418 -1.77372 -72.32889 -71.05193 20.95937 75.17792 -16.88108 -2.40174 1.68578 59.42385 68.40412 23.46801 -72.25743 -27.7185 2.55517 -3.33843 1.35326 3.98005 -5.93969 -2.76631 -3.48956 -6.08234 -0.98998 4.44309 -0.89095 -7.61451 4.09633 2.39434 0.45639
